<svg xmlns="http://www.w3.org/2000/svg" width="512" height="512" viewBox="0 0 512 512" version="1.1">
	<path d="M 110.581 2.250 C 110.329 3.488, 109.859 7.527, 109.536 11.227 C 109.213 14.927, 108.009 21.002, 106.861 24.727 C 96.219 59.239, 67.019 82.962, 30.750 86.563 L 24 87.233 24.010 139.866 C 24.021 192.123, 24.599 206.367, 27.567 227.500 C 36.034 287.791, 59.750 344.236, 97.509 393.966 C 135.501 444.001, 186.545 483.342, 244.250 507.062 L 256.403 512.058 266.952 507.845 C 288.561 499.215, 316.775 483.621, 337.986 468.583 C 410.835 416.936, 463.503 336.079, 481.016 249 C 487.184 218.330, 487.285 216.819, 487.727 148.750 L 488.134 86 483.025 86 C 480.215 86, 474.447 85.287, 470.208 84.416 C 433.794 76.932, 405.173 44.618, 402.306 7.750 L 401.704 0 256.371 0 L 111.038 0 110.581 2.250 M 273.253 212.244 L 224.009 261.488 206.501 244.001 L 188.992 226.514 167.750 247.756 L 146.508 268.998 185 307.500 L 223.493 346.002 294.243 275.257 L 364.994 204.511 344.256 183.756 C 332.850 172.340, 323.288 163, 323.008 163 C 322.727 163, 300.338 185.160, 273.253 212.244" stroke="none" fill="black" fill-rule="evenodd"/>
</svg>